<svg xmlns="http://www.w3.org/2000/svg" xmlns:xlink="http://www.w3.org/1999/xlink" width="92" height="92" viewBox="0 0 92 92">
  <defs>
    <filter id="Ellipse_635" x="0" y="0" width="92" height="92" filterUnits="userSpaceOnUse">
      <feOffset dy="6" input="SourceAlpha"/>
      <feGaussianBlur stdDeviation="4" result="blur"/>
      <feFlood flood-color="#f2c85c" flood-opacity="0.271"/>
      <feComposite operator="in" in2="blur"/>
      <feComposite in="SourceGraphic"/>
    </filter>
  </defs>
  <g id="Group_212403" data-name="Group 212403" transform="translate(-951.945 -1379.67)">
    <g transform="matrix(1, 0, 0, 1, 951.95, 1379.67)" filter="url(#Ellipse_635)">
      <g id="Ellipse_635-2" data-name="Ellipse 635" transform="translate(12 6)" fill="#fff" stroke="#f2c85c" stroke-width="1">
        <circle cx="34" cy="34" r="34" stroke="none"/>
        <circle cx="34" cy="34" r="33.5" fill="none"/>
      </g>
    </g>
    <g id="content-on-demand-play-svgrepo-com" transform="translate(978.689 1381.53)">
      <path id="Path_91219" data-name="Path 91219" d="M20.409,42.231c.858.013,1.794.1,2.7.145,0,0,.818.215.831.852a.9.9,0,0,1-.872.889c-.861,0-1.763-.1-2.627-.142-.321-.014-.724.072-.828.286v1.726s-.294,1.041-1.081.845a.9.9,0,0,1-.661-.846V44.248a2.4,2.4,0,0,1,2.535-2.017Z" transform="translate(-14.605 -16.235)" fill="rgba(29,97,225,0.29)"/>
      <path id="Path_91220" data-name="Path 91220" d="M200.369,155.415a.74.74,0,0,1,.264.047.847.847,0,0,1,.587.824v1.738c-.011,1.223-1.448,2.076-2.682,2.012-.851-.052-1.7-.1-2.557-.14,0,0-.655-.146-.8-.624a.9.9,0,0,1,.837-1.116c.861,0,1.763.1,2.627.142.32.014.723-.072.828-.286v-1.726s.139-.839.852-.871Z" transform="translate(-166.151 -112.99)" fill="rgba(29,97,225,0.29)"/>
      <path id="Path_91221" data-name="Path 91221" d="M15.293,48.794a98.031,98.031,0,0,0-10.517.921l-.542.078A3.131,3.131,0,0,1,.808,46.811c-.042-6.16,0-12.305,0-18.453V26.294A3.938,3.938,0,0,1,1,25.241a3.127,3.127,0,0,1,3.134-1.979,155.872,155.872,0,0,0,29.063.1c.4-.036.8-.075,1.194-.113a2.507,2.507,0,0,1,.321-.011A3.136,3.136,0,0,1,37.7,26.247c.045,6.853,0,13.694,0,20.545a3.932,3.932,0,0,1-.2,1.077,3.129,3.129,0,0,1-3.248,1.94A112.571,112.571,0,0,0,22.743,48.8v.86a34.381,34.381,0,0,1,6.813,1.66s.616.264.661.774a.91.91,0,0,1-1,.938,1.356,1.356,0,0,1-.4-.126,27.692,27.692,0,0,0-19.337.074,1.207,1.207,0,0,1-.794-.077.9.9,0,0,1,.225-1.571,27.354,27.354,0,0,1,6.384-1.68v-.857Zm19.35-23.814c-.9.013-1.939.178-2.931.258a153.8,153.8,0,0,1-26.5-.122A5.025,5.025,0,0,0,3.5,25.041a1.339,1.339,0,0,0-.949,1.239q-.068,10.256,0,20.508a1.343,1.343,0,0,0,1.468,1.278c2.6-.344,5.215-.67,7.839-.852a107.512,107.512,0,0,1,22.127.8c.888.123,1.952-.111,1.974-1.206q.069-10.252,0-20.537a1.341,1.341,0,0,0-1.266-1.288Z" transform="translate(0)" fill="#f2c85c"/>
      <circle id="Ellipse_1349" data-name="Ellipse 1349" cx="6.7" cy="6.7" r="6.7" transform="translate(12.555 29.896)" fill="#fff6e1"/>
      <path id="Path_91222" data-name="Path 91222" d="M83.487,63.1a7.574,7.574,0,1,1-5.3,2.123A7.635,7.635,0,0,1,83.341,63.1h.146ZM83.4,64.845a5.825,5.825,0,1,0,.151,0Z" transform="translate(-64.184 -34.077)" fill="#f2c85c"/>
      <path id="Path_91223" data-name="Path 91223" d="M107.836,90.431a.988.988,0,0,1,.34.09l5.84,2.92a.9.9,0,0,1,.039,1.537l-.039.021-5.84,2.92a.652.652,0,0,1-.6.065.85.85,0,0,1-.657-.844V91.3a.745.745,0,0,1,.04-.262.843.843,0,0,1,.836-.609Z" transform="translate(-90.721 -57.438)" fill="#1d6491" fill-rule="evenodd"/>
    </g>
  </g>
</svg>
