<svg xmlns="http://www.w3.org/2000/svg" xmlns:xlink="http://www.w3.org/1999/xlink" width="92" height="92" viewBox="0 0 92 92">
  <defs>
    <filter id="Ellipse_604" x="0" y="0" width="92" height="92" filterUnits="userSpaceOnUse">
      <feOffset dy="6" input="SourceAlpha"/>
      <feGaussianBlur stdDeviation="4" result="blur"/>
      <feFlood flood-color="#f2c85c" flood-opacity="0.271"/>
      <feComposite operator="in" in2="blur"/>
      <feComposite in="SourceGraphic"/>
    </filter>
  </defs>
  <g id="Group_212408" data-name="Group 212408" transform="translate(-328 -1704)">
    <g transform="matrix(1, 0, 0, 1, 328, 1704)" filter="url(#Ellipse_604)">
      <g id="Ellipse_604-2" data-name="Ellipse 604" transform="translate(12 6)" fill="#fff" stroke="#f2c85c" stroke-width="1">
        <circle cx="34" cy="34" r="34" stroke="none"/>
        <circle cx="34" cy="34" r="33.5" fill="none"/>
      </g>
    </g>
    <g id="clock-square-svgrepo-com" transform="translate(358 1728)">
      <path id="Path_91234" data-name="Path 91234" d="M2,16.377C2,9.6,2,6.211,4.105,4.105S9.6,2,16.377,2,26.543,2,28.648,4.105,30.754,9.6,30.754,16.377s0,10.166-2.106,12.271-5.494,2.106-12.271,2.106-10.166,0-12.271-2.106S2,23.154,2,16.377Z" transform="translate(0 0)" fill="#f2c85c"/>
      <path id="Path_91235" data-name="Path 91235" d="M12.328,7.25a1.078,1.078,0,0,1,1.078,1.078v5.3l3.278,3.279a1.078,1.078,0,0,1-1.525,1.525l-3.594-3.594a1.078,1.078,0,0,1-.316-.762V8.328A1.078,1.078,0,0,1,12.328,7.25Z" transform="translate(4.049 2.298)" fill="#fff" fill-rule="evenodd"/>
    </g>
  </g>
</svg>
