<svg xmlns="http://www.w3.org/2000/svg" xmlns:xlink="http://www.w3.org/1999/xlink" width="92" height="92" viewBox="0 0 92 92">
  <defs>
    <filter id="Ellipse_605" x="0" y="0" width="92" height="92" filterUnits="userSpaceOnUse">
      <feOffset dy="6" input="SourceAlpha"/>
      <feGaussianBlur stdDeviation="4" result="blur"/>
      <feFlood flood-color="#f2c85c" flood-opacity="0.271"/>
      <feComposite operator="in" in2="blur"/>
      <feComposite in="SourceGraphic"/>
    </filter>
  </defs>
  <g id="Group_212407" data-name="Group 212407" transform="translate(-327.697 -1530.179)">
    <g transform="matrix(1, 0, 0, 1, 327.7, 1530.18)" filter="url(#Ellipse_605)">
      <g id="Ellipse_605-2" data-name="Ellipse 605" transform="translate(12 6)" fill="#fff" stroke="#f2c85c" stroke-width="1">
        <circle cx="34" cy="34" r="34" stroke="none"/>
        <circle cx="34" cy="34" r="33.5" fill="none"/>
      </g>
    </g>
    <g id="Group_212397" data-name="Group 212397" transform="translate(-1334.607 171.379)">
      <path id="Path_91229" data-name="Path 91229" d="M207.243,349.074h10.931v-5.63a4.073,4.073,0,0,0-4.076-4.082H190.234a4.083,4.083,0,0,0-4.082,4.082v11.272a4.085,4.085,0,0,0,4.082,4.082h2.754l-1.09,9.292,5.022-9.292h6.65v-6.055A3.676,3.676,0,0,1,207.243,349.074Zm-4.442,4.889a1,1,0,0,1-.777.306,1.019,1.019,0,0,1-.771-.316,1.113,1.113,0,0,1-.258-.743,1.072,1.072,0,0,1,.258-.715,1.007,1.007,0,0,1,.771-.32,1,1,0,0,1,.777.309,1.079,1.079,0,0,1,.271.727A1.114,1.114,0,0,1,202.8,353.964Zm.81-5.41a2.218,2.218,0,0,0-.736.95,3.651,3.651,0,0,0-.177,1.26v.7h-1.445v-1.135a2.422,2.422,0,0,1,.485-1.443,7.95,7.95,0,0,1,.995-1.112,7.6,7.6,0,0,0,.837-.861,1.636,1.636,0,0,0,.281-.829c0-.995-.539-1.523-1.608-1.587-1.111,0-1.71.365-1.8,1.1a1.093,1.093,0,0,0,.286.85,1.527,1.527,0,0,0,.5.306l-.8.8a1.742,1.742,0,0,1-.859-.416,1.613,1.613,0,0,1-.573-1.4,2.023,2.023,0,0,1,.9-1.67,3.806,3.806,0,0,1,2.2-.6,4.114,4.114,0,0,1,2.127.474,2.191,2.191,0,0,1,1,1.21,2.142,2.142,0,0,1,.122.725C205.341,346.689,204.756,347.585,203.612,348.553Z" transform="translate(1503.848 1046.637)" fill="#f2c85c"/>
      <path id="Path_91230" data-name="Path 91230" d="M218.3,346.671H202.151a3.181,3.181,0,0,0-3.182,3.169v7.632a3.181,3.181,0,0,0,3.182,3.172h12.192l4.484,8.307-.967-8.307h.443a3.175,3.175,0,0,0,3.175-3.172V349.84A3.175,3.175,0,0,0,218.3,346.671Zm2.357,10.8a2.359,2.359,0,0,1-2.357,2.359h-1.364l.587,4.994-2.693-4.994H202.151a2.359,2.359,0,0,1-2.357-2.359V349.84a2.356,2.356,0,0,1,2.357-2.352H218.3a2.356,2.356,0,0,1,2.357,2.352Z" transform="translate(1508.941 1049.541)" fill="#f2c85c"/>
      <path id="Path_91231" data-name="Path 91231" d="M204.74,352.972a.935.935,0,0,0-.742.31,1.06,1.06,0,0,0-.279.708,1.042,1.042,0,0,0,.286.713,1.052,1.052,0,0,0,1.485.007,1.081,1.081,0,0,0,0-1.435A.941.941,0,0,0,204.74,352.972Z" transform="translate(1510.828 1052.044)" fill="#f2c85c"/>
      <path id="Path_91232" data-name="Path 91232" d="M207.342,352.972a.94.94,0,0,0-.749.31,1.043,1.043,0,0,0,0,1.421.953.953,0,0,0,.749.31.938.938,0,0,0,.743-.3,1.065,1.065,0,0,0,0-1.435A.938.938,0,0,0,207.342,352.972Z" transform="translate(1511.859 1052.044)" fill="#f2c85c"/>
      <path id="Path_91233" data-name="Path 91233" d="M209.934,352.972a.932.932,0,0,0-.749.31,1.063,1.063,0,0,0,0,1.421,1.061,1.061,0,0,0,1.492.007,1.1,1.1,0,0,0,0-1.435A.946.946,0,0,0,209.934,352.972Z" transform="translate(1512.891 1052.044)" fill="#f2c85c"/>
    </g>
  </g>
</svg>
