<svg xmlns="http://www.w3.org/2000/svg" xmlns:xlink="http://www.w3.org/1999/xlink" width="92" height="92" viewBox="0 0 92 92">
  <defs>
    <filter id="Ellipse_636" x="0" y="0" width="92" height="92" filterUnits="userSpaceOnUse">
      <feOffset dy="6" input="SourceAlpha"/>
      <feGaussianBlur stdDeviation="4" result="blur"/>
      <feFlood flood-color="#f2c85c" flood-opacity="0.271"/>
      <feComposite operator="in" in2="blur"/>
      <feComposite in="SourceGraphic"/>
    </filter>
  </defs>
  <g id="Group_212404" data-name="Group 212404" transform="translate(-951.945 -1538)">
    <g transform="matrix(1, 0, 0, 1, 951.95, 1538)" filter="url(#Ellipse_636)">
      <g id="Ellipse_636-2" data-name="Ellipse 636" transform="translate(12 6)" fill="#fff" stroke="#f2c85c" stroke-width="1">
        <circle cx="34" cy="34" r="34" stroke="none"/>
        <circle cx="34" cy="34" r="33.5" fill="none"/>
      </g>
    </g>
    <g id="Group_212394" data-name="Group 212394" transform="translate(395.842 1106.255)">
      <g id="_372_Badge_Reduction_Sale_Shopping" data-name="372, Badge, Reduction, Sale, Shopping" transform="translate(582.743 453.102)">
        <g id="Group_212395" data-name="Group 212395">
          <path id="Path_91210" data-name="Path 91210" d="M634.7,463.688a.946.946,0,1,1-.946.947A.946.946,0,0,1,634.7,463.688Z" transform="translate(-596.929 -456.046)" fill="#f2c85c"/>
          <path id="Path_91211" data-name="Path 91211" d="M632.184,496.456a.946.946,0,1,1-.946.946A.946.946,0,0,1,632.184,496.456Z" transform="translate(-596.228 -465.157)" fill="#f2c85c"/>
          <path id="Path_91212" data-name="Path 91212" d="M619.384,476.321l-1.237-3.712a3.271,3.271,0,0,1,0-1.674l1.237-3.712a1.942,1.942,0,0,0-.656-2.111l-3.2-2.4a2.772,2.772,0,0,1-1.019-1.383l-1.237-3.712a1.791,1.791,0,0,0-1.747-1.31h-3.93a2.985,2.985,0,0,1-1.6-.51l-3.2-2.33a1.819,1.819,0,0,0-2.183,0l-3.2,2.33a2.619,2.619,0,0,1-1.6.51h-3.931a1.791,1.791,0,0,0-1.747,1.31l-1.237,3.712a2.407,2.407,0,0,1-1.019,1.383l-3.2,2.33a1.829,1.829,0,0,0-.655,2.11l1.237,3.712a3.253,3.253,0,0,1,0,1.673l-1.237,3.713a1.942,1.942,0,0,0,.655,2.111l3.2,2.329a2.773,2.773,0,0,1,1.019,1.383l1.237,3.712a1.792,1.792,0,0,0,1.747,1.31H595.8a2.979,2.979,0,0,1,1.6.51l3.2,2.328a1.819,1.819,0,0,0,2.183,0l3.2-2.328a2.616,2.616,0,0,1,1.6-.51h3.93a1.792,1.792,0,0,0,1.747-1.31l1.237-3.712a2.408,2.408,0,0,1,1.019-1.383l3.2-2.329A1.833,1.833,0,0,0,619.384,476.321ZM606.792,465.04a.466.466,0,1,1,.728.582L596.6,478.359a.56.56,0,0,1-.364.145.29.29,0,0,1-.291-.145.461.461,0,0,1-.074-.655Zm-1.019,11.209a2.256,2.256,0,1,1-2.256-2.257A2.267,2.267,0,0,1,605.773,476.249Zm-8.152-9.1a2.256,2.256,0,1,1,2.257,2.256A2.268,2.268,0,0,1,597.621,467.15Zm16.742,5.168.655,2.038A2.626,2.626,0,0,1,614,477.413l-1.674,1.31a1.731,1.731,0,0,0-.655.946l-.655,2.039a2.731,2.731,0,0,1-2.621,1.892h-2.183a1.963,1.963,0,0,0-1.092.364l-1.747,1.237a2.767,2.767,0,0,1-1.6.51,2.478,2.478,0,0,1-1.6-.51l-1.746-1.237a1.967,1.967,0,0,0-1.092-.364h-2.184a2.754,2.754,0,0,1-2.62-1.892l-.656-2.039a2.211,2.211,0,0,0-.655-.946l-1.892-1.31a2.8,2.8,0,0,1-1.019-3.057l.655-2.038a1.607,1.607,0,0,0,0-1.165l-.655-2.038a2.625,2.625,0,0,1,1.019-3.057l1.746-1.237a1.737,1.737,0,0,0,.655-.946l.655-2.038a2.73,2.73,0,0,1,2.62-1.892h2.185a1.956,1.956,0,0,0,1.091-.365l1.747-1.237a2.729,2.729,0,0,1,3.275,0,.466.466,0,1,1-.582.728,1.751,1.751,0,0,0-2.184,0l-1.747,1.237a2.62,2.62,0,0,1-1.6.51H595a1.791,1.791,0,0,0-1.746,1.31l-.655,2.039a2.408,2.408,0,0,1-1.019,1.382l-1.747,1.237a1.83,1.83,0,0,0-.655,2.11l.655,2.039a3.255,3.255,0,0,1,0,1.674l-.655,2.037a1.941,1.941,0,0,0,.655,2.111L591.58,478a2.77,2.77,0,0,1,1.019,1.382l.655,2.038a1.79,1.79,0,0,0,1.746,1.31h2.185a2.979,2.979,0,0,1,1.6.51l1.747,1.237a1.751,1.751,0,0,0,2.184,0l1.747-1.237a2.62,2.62,0,0,1,1.6-.51h2.183a1.79,1.79,0,0,0,1.747-1.31l.655-2.038A2.4,2.4,0,0,1,611.669,478l1.747-1.238a1.829,1.829,0,0,0,.655-2.111l-.655-2.037a3.255,3.255,0,0,1,0-1.674l.655-2.039a1.942,1.942,0,0,0-.655-2.11l-1.747-1.237a2.773,2.773,0,0,1-1.019-1.382l-.583-2.185a1.79,1.79,0,0,0-1.746-1.31.437.437,0,1,1,0-.874,2.754,2.754,0,0,1,2.62,1.893l.656,2.037a2.206,2.206,0,0,0,.655.946L614,465.913a2.8,2.8,0,0,1,1.019,3.057l-.655,2.037A3.913,3.913,0,0,0,614.363,472.318Z" transform="translate(-583.064 -453.102)" fill="#f2c85c"/>
          <path id="Path_91213" data-name="Path 91213" d="M606.883,472.028a1.382,1.382,0,0,0-1.382-1.383,1.383,1.383,0,1,0,1.382,1.383Z" transform="translate(-588.686 -457.98)" fill="#f2c85c"/>
          <path id="Path_91214" data-name="Path 91214" d="M628.958,503.514a.946.946,0,1,0,.947.946A.918.918,0,0,0,628.958,503.514Z" transform="translate(-595.331 -467.12)" fill="#f2c85c"/>
          <path id="Path_91215" data-name="Path 91215" d="M587.42,459.935a.946.946,0,1,0-.946-.946A.917.917,0,0,0,587.42,459.935Z" transform="translate(-583.78 -454.476)" fill="#f2c85c"/>
          <path id="Path_91216" data-name="Path 91216" d="M609.158,484.631a1.383,1.383,0,0,0,2.766,0,1.338,1.338,0,0,0-1.383-1.383A1.487,1.487,0,0,0,609.158,484.631Z" transform="translate(-590.088 -461.485)" fill="#f2c85c"/>
          <path id="Path_91217" data-name="Path 91217" d="M584.125,499.683a1.383,1.383,0,0,0,0,2.766,1.338,1.338,0,0,0,1.383-1.383A1.429,1.429,0,0,0,584.125,499.683Z" transform="translate(-582.743 -466.055)" fill="#f2c85c"/>
          <path id="Path_91218" data-name="Path 91218" d="M632.453,456.741a1.82,1.82,0,1,0-1.819-1.819A1.8,1.8,0,0,0,632.453,456.741Z" transform="translate(-596.06 -453.102)" fill="#f2c85c"/>
        </g>
      </g>
    </g>
  </g>
</svg>
